<svg width="60" height="56" fill="none" xmlns="http://www.w3.org/2000/svg">
<path fill-rule="evenodd" clip-rule="evenodd" d="M2.638 40.097c-1.84 2.74-3.016 4.195-2.527 7.88.352 2.646 1.775 5.14 4.005 6.605 2.442 1.606 5.58 1.884 8.204.532 2.83-1.46 3.606-3.115 4.726-5.93l25.944.004c1.147 2.867 1.907 4.483 4.797 5.962 5.271 2.697 11.807-1.331 12.193-7.744.096-1.592-.152-3.16-.806-4.615-.762-1.697-1.392-1.926-2.263-3.2 1.187-2.573 1.596-4.71.332-7.412-2.2-4.704-8.293-5.68-11.66-1.456-.754.945-.718 2.282-1.201 3.404-.464 1.079-1.01 1.895-1.665 2.849 5.193.828 1.806-2.361 4.901-5.38 2.209-2.153 5.282-1.755 7.207.55 2.974 3.562-.398 6.581-.368 7.76.024.97 3.614 2.446 3.53 6.988-.117 6.288-7.613 9.479-11.601 4.513-4.132-5.145 4.25-4.408-16.474-4.408H19.599c-1.113 0-3.996-.471-4.384.839-.485 1.636-.46 2.21-1.612 3.628-4.03 4.963-11.61 1.595-11.554-4.79.012-1.388.41-2.814 1.183-3.967.703-1.048 2.365-2.009 1.687-3.1-.877-1.41-1.493-1.61-1.641-3.582-.376-5.009 5.138-7.638 8.447-4.375 2.887 2.847-.463 6.235 5.061 5.322-.66-.938-1.33-1.857-1.694-2.923-.448-1.31-.582-2.257-1.46-3.358-1.615-2.024-4.255-3.062-6.802-2.488-5.343 1.205-6.96 7.36-4.192 11.892Z" fill="#222327"/>
<path fill-rule="evenodd" clip-rule="evenodd" d="M31.113 20.778c2.955-.71 4.331 2.939 1.368 3.694-3.025.77-4.575-2.925-1.368-3.694Zm-1.436 15.57.057-.047c.355.118 1.074 2.45 3.629 3.14 3.334.901 7.19-.925 9.2-4.041.576-.894 2.374-4.094.848-4.727-1.335-.553-1.863 2.555-2.707 3.82-.906 1.357-2.478 2.409-4.051 2.779-5.36 1.262-5.933-3.37-5.884-7.46 2.673-.801 5.566-4.253 5.39-7.169-.218-3.61-5.248-4.722-8.114-4.157-3.778.746-5.913 3.314-3.97 7.137 2.19 4.304 4.568 3.462 4.676 4.714.39 4.5-2.242 9.497-7.803 6.172-1.339-.801-2.254-1.98-2.921-3.38-.248-.52-.633-2.017-.852-2.252-.629-.671-1.747-.158-1.711.862.095 2.693 3.05 6.142 5.475 7.143 3.34 1.38 7.065 1.05 8.738-2.533ZM36.023 15.816c-.769-1.787-1.513-3.565-.319-5.484 1.1-1.767 3.207-1.83 4.765-.617 3.262 2.537 3.258 8.844-.86 8.569 2.257-.734 2.936-3.114 1.874-5.198L39.05 14.93l.809-3.133c-2.867-.712-3.903 1.59-3.836 4.018Zm1.27-8.993c-7.47 1.52-3.982 14.869 3.364 13.566 7.44-1.32 4.027-15.07-3.364-13.566ZM21.235 14.669l-2.346-1.826c-.689.723-.748 2.098-.46 3.021.343 1.099.78 1.394 1.63 1.993-4.148-.343-3.544-5.691-1.147-8.16 1.23-1.266 3.21-1.76 4.668-.537 1.567 1.312 1.187 3.522.787 5.225-.655-1.09-.491-2.46-2.474-2.875-2.207-.461-1.22.438-.658 3.159ZM20.88 6.37c-7.76 1.284-7.727 14.85.025 13.59 7.732-1.258 7.697-14.867-.025-13.59ZM34.938.046c-1.114.18-1.272 1.493-.557 1.969.725.482 2.558-.535 4.487 2.336.474.706.674 1.82 1.645 1.699 2.663-.332-1.566-6.65-5.575-6.004ZM22.32.07c-1.714.247-3.12 1.312-4.112 2.69-2.42 3.369.005 3.86.691 2.842.937-1.39 1.431-2.925 3.384-3.355.81-.178 2.282.246 2.21-1.19-.06-1.182-1.317-1.11-2.174-.986Z" fill="#222327"/></svg>